<?xml version="1.0" encoding="utf-8"?>
<!-- Generator: Adobe Illustrator 24.0.0, SVG Export Plug-In . SVG Version: 6.00 Build 0)  -->
<svg version="1.1" id="Capa_1" xmlns="http://www.w3.org/2000/svg" xmlns:xlink="http://www.w3.org/1999/xlink" x="0px" y="0px"
	 viewBox="0 0 512 512" style="enable-background:new 0 0 512 512;" xml:space="preserve">
<style type="text/css">
	.st0{fill:#FFFFFF;}
</style>
<g>
	<path class="st0" d="M197.9,239.3L158,133.6c0-0.1-0.1-0.2-0.1-0.3c-1.9-4.7-6.5-7.8-11.6-7.8h0c-5.1,0-9.6,3.1-11.6,7.8
		c0,0.1-0.1,0.2-0.1,0.2L94.4,239.3c-2,5.2,0.6,11,5.8,13c4.8,1.8,10.8-0.2,13-5.8l7.9-20.7h50.1l7.8,20.7c2,5.2,7.8,7.8,13,5.9
		C197.2,250.4,199.9,244.5,197.9,239.3L197.9,239.3z M128.8,205.6l17.5-45.9l17.3,45.9H128.8z M340.7,253c-5.3,0-10.1-4.4-10.1-10.1
		V135.7c0-5.6,4.5-10.1,10.1-10.1h31.1c19.2,0,34.8,15.6,34.8,34.8c0,8.1-2.8,15.5-7.4,21.4c10.3,7,17,18.8,17,32.2
		c0,21.5-17.5,38.9-38.9,38.9C369.5,252.9,340.7,253,340.7,253L340.7,253z M350.7,195.1v37.7c9.1,0,21.7-0.1,26.5-0.1
		c10.4,0,18.8-8.4,18.8-18.8c0-10.4-8.4-18.8-18.8-18.8L350.7,195.1L350.7,195.1z M350.7,175h21.1c8,0,14.6-6.6,14.6-14.6
		c0-8-6.5-14.6-14.6-14.6h-21.1V175z M448.5,302.4H283.2c-5.6,0-10.1-4.5-10.1-10.1V86.7c0-5.6,4.5-10.1,10.1-10.1h165.3
		c5.6,0,10.1,4.5,10.1,10.1v205.6C458.6,297.8,454.1,302.4,448.5,302.4z M293.3,282.2h145.1V96.8H293.3V282.2z M228.8,302.4H63.5
		c-5.6,0-10.1-4.5-10.1-10.1V86.7c0-5.6,4.5-10.1,10.1-10.1h165.3c5.6,0,10.1,4.5,10.1,10.1v205.6
		C238.9,297.8,234.4,302.4,228.8,302.4z M73.6,282.2h145.1V96.8H73.6V282.2z M266.1,465.6c0,5.6-4.5,10.1-10.1,10.1
		c-5.6,0-10.1-4.5-10.1-10.1c0-5.6,4.5-10.1,10.1-10.1C261.5,455.6,266.1,460.1,266.1,465.6z M512,76.6v266.1
		c0,22.2-18.1,40.3-40.3,40.3H321.2l4.9,39.5c0.3,2.1,1.6,3.6,3,4c7,2.1,15.1,6.7,20.9,14.5c5.4,7.1,8.3,15.6,8.3,24.6
		c0,5.9-4.9,10.1-10.1,10.1h-46.9c-5.6,0-10.1-4.5-10.1-10.1c0-5.6,4.5-10.1,10.1-10.1h34.2c-2.6-4.7-7.1-8.2-12.2-9.7
		c-10.4-3.2-16-11.8-17.3-20.8l-5.2-42h-89.7l-5.2,42c-1.5,10.4-8.1,18-17.3,20.8c-5.1,1.6-9.5,5.1-12.2,9.7h34.1
		c5.6,0,10.1,4.5,10.1,10.1c0,5.6-4.5,10.1-10.1,10.1h-46.8c-5.5,0-10.1-4.5-10.1-10.1c0-9,2.9-17.5,8.3-24.6
		c6.2-8.1,14.2-12.5,20.9-14.5c1.5-0.4,2.7-2,3-4l4.9-39.5H40.3C18.1,383,0,364.9,0,342.7V76.6c0-22.2,18.1-40.3,40.3-40.3h431.4
		C493.9,36.3,512,54.4,512,76.6L512,76.6z M491.8,342.7H20.2c0,11.1,9,20.2,20.2,20.2h431.4C482.8,362.8,491.8,353.8,491.8,342.7z
		 M491.8,76.6c0-11.1-9-20.2-20.2-20.2H40.3c-11.1,0-20.2,9-20.2,20.2v245.9h471.7V76.6z"/>
</g>
</svg>
