<?xml version="1.0" encoding="utf-8"?>
<!-- Generator: Adobe Illustrator 24.0.0, SVG Export Plug-In . SVG Version: 6.00 Build 0)  -->
<svg version="1.1" id="Слой_1" xmlns="http://www.w3.org/2000/svg" xmlns:xlink="http://www.w3.org/1999/xlink" x="0px" y="0px"
	 viewBox="0 0 512 512" style="enable-background:new 0 0 512 512;" xml:space="preserve">
<style type="text/css">
	.st0{fill:#FFFFFF;}
</style>
<g transform="matrix(1 0 0 1 0 0)">
	<g id="surface1">
		<path class="st0" d="M41.3,454H256v-16.5H41.3c-13.7,0-24.8-11.1-24.8-24.8V49.4c0-13.7,11.1-24.8,24.8-24.8h363.4
			c13.7,0,24.8,11.1,24.8,24.8v189.9h16.5V49.4c0-22.8-18.5-41.3-41.3-41.3H41.3C18.5,8.1,0,26.6,0,49.4v363.4
			C0,435.5,18.5,454,41.3,454z"/>
		<path class="st0" d="M33,41.1h16.5v16.5H33V41.1z"/>
		<path class="st0" d="M66.1,41.1h16.5v16.5H66.1V41.1z"/>
		<path class="st0" d="M99.1,41.1h16.5v16.5H99.1V41.1z"/>
		<path class="st0" d="M33,74.1h379.9v16.5H33V74.1z"/>
		<path class="st0" d="M118,109.6l-21,21c-17.7-11.7-41.5-8.1-54.9,8.3c-13.5,16.5-12.2,40.5,2.8,55.5c15,15,39,16.2,55.5,2.8
			c16.5-13.5,20.1-37.2,8.3-54.9l21-21L118,109.6z M74.3,189.8c-13.7,0-24.8-11.1-24.8-24.8c0-13.7,11.1-24.8,24.8-24.8
			c3.7,0,7.3,0.9,10.6,2.5l-16.4,16.5l11.7,11.7l16.5-16.4c1.6,3.3,2.5,6.9,2.5,10.6C99.1,178.7,88,189.8,74.3,189.8z"/>
		<path class="st0" d="M140.4,140.2h140.4v16.5H140.4V140.2z"/>
		<path class="st0" d="M140.4,173.2h57.8v16.5h-57.8V173.2z"/>
		<path class="st0" d="M214.7,173.2h115.6v16.5H214.7V173.2z"/>
		<path class="st0" d="M297.3,140.2h82.6v16.5h-82.6V140.2z"/>
		<path class="st0" d="M118,208.7l-21,21c-17.7-11.7-41.5-8.1-54.9,8.3c-13.5,16.5-12.2,40.5,2.8,55.5c15,15,39,16.2,55.5,2.8
			c16.5-13.5,20.1-37.2,8.3-54.9l21-21L118,208.7z M74.3,288.9c-13.7,0-24.8-11.1-24.8-24.8c0-13.7,11.1-24.8,24.8-24.8
			c3.7,0,7.3,0.9,10.6,2.5l-16.4,16.5l11.7,11.7l16.5-16.4c1.6,3.3,2.5,6.9,2.5,10.6C99.1,277.8,88,288.9,74.3,288.9z"/>
		<path class="st0" d="M140.4,239.3h140.4v16.5H140.4V239.3z"/>
		<path class="st0" d="M140.4,272.3h57.8v16.5h-57.8V272.3z"/>
		<path class="st0" d="M214.7,272.3h66.1v16.5h-66.1V272.3z"/>
		<path class="st0" d="M297.3,239.3h33v16.5h-33V239.3z"/>
		<path class="st0" d="M118,307.8l-21,21c-17.7-11.7-41.5-8.1-54.9,8.3c-13.5,16.5-12.2,40.5,2.8,55.5c15,15,39,16.2,55.5,2.8
			c16.5-13.5,20.1-37.2,8.3-54.9l21-21L118,307.8z M74.3,388c-13.7,0-24.8-11.1-24.8-24.8c0-13.7,11.1-24.8,24.8-24.8
			c3.7,0,7.3,0.9,10.6,2.5l-16.4,16.5L80.2,369l16.5-16.4c1.6,3.3,2.5,6.9,2.5,10.6C99.1,376.9,88,388,74.3,388z"/>
		<path class="st0" d="M140.4,338.4h107.4v16.5H140.4V338.4z"/>
		<path class="st0" d="M140.4,371.4h57.8V388h-57.8V371.4z"/>
		<path class="st0" d="M214.7,371.4h33V388h-33V371.4z"/>
		<path class="st0" d="M388.1,503.6c68.4,0,123.9-55.5,123.9-123.9c0-68.4-55.5-123.9-123.9-123.9s-123.9,55.5-123.9,123.9
			C264.3,448.1,319.7,503.5,388.1,503.6z M388.1,272.3c59.3,0,107.4,48.1,107.4,107.4S447.4,487,388.1,487
			c-59.3,0-107.4-48.1-107.4-107.4C280.8,320.4,328.9,272.4,388.1,272.3z"/>
		<path class="st0" d="M337.8,384.3l-14.8,7.4l16.5,33c1.2,2.4,3.4,4,6.1,4.5c0.4,0.1,0.9,0.1,1.3,0.1c2.2,0,4.3-0.9,5.8-2.4
			l99.1-99.1L440.1,316l-91,91L337.8,384.3z"/>
	</g>
</g>
</svg>
