<?xml version="1.0" encoding="utf-8"?>
<!-- Generator: Adobe Illustrator 24.0.0, SVG Export Plug-In . SVG Version: 6.00 Build 0)  -->
<svg version="1.1" id="Capa_1" xmlns="http://www.w3.org/2000/svg" xmlns:xlink="http://www.w3.org/1999/xlink" x="0px" y="0px"
	 viewBox="0 0 512 512" style="enable-background:new 0 0 512 512;" xml:space="preserve">
<style type="text/css">
	.st0{fill:#FFFFFF;}
</style>
<g>
	<path class="st0" d="M421.3,216.2h-16l1.3-17.2c2-27.3-3.4-54.5-15.6-78.8v-8.6c0-4.1-3.4-7.5-7.5-7.5s-7.5,3.4-7.5,7.5
		c0,27.1,0.1,26.1-0.2,28.2c-3.2-3.8-7-7.1-11.3-9.9l-9.5-6.1c-3.5-2.2-8.1-1.2-10.4,2.3c-2.2,3.5-1.2,8.1,2.3,10.4l9.5,6.1
		c5.1,3.3,9.1,7.7,12,12.9c-4.9,5.1-11.9,8.3-19.5,8.3c-20.1,0-24,0-68.3,0c-9.4,0-17.1-7.6-17.1-17.1v-9.2h17.3
		c4.1,0,7.5-3.4,7.5-7.5s-3.4-7.5-7.5-7.5h-17.3V88h25c3.2,0,6.2-0.6,9-1.7l9.4,9.3c2.9,2.9,7.7,2.9,10.6-0.1
		c2.9-2.9,2.9-7.7-0.1-10.6l-8.3-8.2c2.5-3.8,3.9-8.4,3.9-13.2v-1.1h6.8c10,0,19-5.1,24.2-13.7c2.1-3.5,1-8.2-2.6-10.3
		c-3.6-2.1-8.2-1-10.3,2.6c-2.4,4.1-6.6,6.4-11.3,6.4h-30.5c-4.1,0-7.5,3.4-7.5,7.5s3.4,7.5,7.5,7.5h8.8v1.1c0,5.3-4.3,9.5-9.5,9.5
		h-25V28.8c0-7.6,6.2-13.8,13.8-13.8h1.3v1.1c0,2.8,0.5,5.5,1.4,8l-2.6,1.3c-3.7,1.8-5.2,6.3-3.4,10.1c1.8,3.7,6.3,5.2,10.1,3.4
		l5.8-2.9c2.7,1.6,5.7,2.6,8.9,3l13.3,1.5c4.2,0.5,7.8-2.5,8.3-6.6c0.5-4.1-2.5-7.8-6.6-8.3L300.6,24c-1.7-0.2-3.2-0.9-4.4-2
		c-0.1-0.1-0.3-0.3-0.4-0.4c-1.4-1.4-2.2-3.4-2.2-5.5V15h1.4c30.8,0,58.3,17.3,71.9,43.7h-12c-4.1,0-7.5,3.4-7.5,7.5
		s3.4,7.5,7.5,7.5h17.9c0.2,0.9,0.5,1.7,0.7,2.6c0.9,3.4,3.9,5.7,7.3,5.7c4.9,0,8.5-4.6,7.3-9.3C377.4,29.9,339.2,0,295,0h-17.8
		c-8.4,0-16,3.6-21.3,9.4C250.7,3.6,243.1,0,234.7,0H217c-17,0-33.7,4.5-48.3,13c-3.6,2.1-4.8,6.7-2.7,10.3
		c2.1,3.6,6.7,4.8,10.3,2.7c12.3-7.2,26.4-11,40.7-11h1.4v1.1c0,2.1-0.8,4-2.2,5.5c-0.1,0.1-0.3,0.3-0.4,0.4c-1.2,1.1-2.7,1.8-4.4,2
		l-13.3,1.5c-4.1,0.5-7.1,4.2-6.6,8.3c0.5,4.1,4.2,7.1,8.3,6.6l13.3-1.5c3.2-0.4,6.3-1.4,8.9-3l5.8,2.9c3.7,1.8,8.2,0.4,10.1-3.4
		c1.8-3.7,0.3-8.2-3.4-10.1l-2.6-1.3c0.9-2.5,1.4-5.2,1.4-8V15h1.3c7.6,0,13.8,6.2,13.8,13.8V73h-25c-5.3,0-9.5-4.3-9.5-9.5v-1.1
		h8.8c4.1,0,7.5-3.4,7.5-7.5s-3.4-7.5-7.5-7.5h-30.5c-4.8,0-8.9-2.3-11.3-6.4c-2.1-3.5-6.7-4.7-10.3-2.6s-4.7,6.7-2.6,10.3
		c5.1,8.6,14.2,13.7,24.2,13.7h6.8v1.1c0,4.9,1.4,9.4,3.9,13.2l-8.3,8.2c-2.9,2.9-3,7.7-0.1,10.6c2.9,2.9,7.7,3,10.6,0.1l9.4-9.3
		c2.8,1.1,5.8,1.7,9,1.7h25v34.5h-17.3c-4.1,0-7.5,3.4-7.5,7.5s3.4,7.5,7.5,7.5h17.3v9.2c0,9.4-7.6,17.1-17.1,17.1
		c-44.2,0-50.5,0-68.3,0c-7.7,0-14.6-3.2-19.5-8.3c2.8-5.3,6.9-9.7,11.9-12.9l9.5-6.1c3.5-2.2,4.5-6.9,2.3-10.4
		c-2.2-3.5-6.9-4.5-10.4-2.3l-9.5,6.1c-4.3,2.8-8.1,6.1-11.3,9.9c-0.2-2.1-0.2,2.1-0.2-43.9c0-7.6,1-15.1,3.1-22.2h18
		c4.1,0,7.5-3.4,7.5-7.5s-3.4-7.5-7.5-7.5h-12c2.2-4.2,4.8-8.3,7.7-12.1c2.5-3.3,1.9-8-1.4-10.5c-3.3-2.5-8-1.9-10.5,1.4
		c-13,16.9-19.9,37.1-19.9,58.5v24.3c-12.2,24.3-17.6,51.5-15.6,78.8l1.3,17.2h-16c-21.1,0-38.2,17.1-38.2,38.2v3.4
		c0,34.8,27.6,63.2,62,64.5l0.7,9.2c2.9,38.9,29.2,71.7,60.2,94v22.3c0,11.6-6.8,22.3-17.2,27.4l-30.9,14.8c-4.9,2.4-7.5,7.7-6.3,13
		c1.2,5.3,5.9,9,11.3,9h247.3c5.4,0,10.1-3.7,11.3-9s-1.4-10.7-6.3-13l-30.9-14.8c-10.5-5-17.2-15.8-17.2-27.4v-22.2
		c17.9-12.8,33-28.3,43.3-44.6c2.2-3.5,1.2-8.1-2.3-10.3c-3.5-2.2-8.1-1.2-10.3,2.3c-26.9,42.6-82.9,68.8-111.2,68.8
		c-45,0-121.4-51.2-125.8-111.3c-6.5-87.6,7.8,105.8-9.8-132.5c-1.1-15.1,0.3-30.2,4.1-44.6c2.6,6.1,6.7,11.6,11.9,15.9
		c-0.5,3.4-0.9,6.9-1.1,10.4c-0.9,13.1,9.6,24.2,22.7,24.2h196c13.1,0,23.6-11.1,22.7-24.2c-0.2-3.5-0.6-6.9-1.1-10.4
		c2.8-2.3,5.2-4.9,7.3-7.8c0.2-0.3,0.5-0.6,0.7-0.9c1.5-2.2,2.9-4.6,4-7.2c3.8,14.4,5.2,29.5,4.1,44.6l-9.8,132.5
		c-0.3,3.8-0.8,7.7-1.7,11.4c-1,4.7,2.6,9.1,7.3,9.1c3.5,0,6.6-2.4,7.3-5.9c1.8-8.1,1.9-13.4,2.6-22.7c34.4-1.3,62-29.8,62-64.5
		v-3.4C459.5,233.4,442.4,216.2,421.3,216.2L421.3,216.2z M321.6,435.3v12.5c0,17.3,10.1,33.4,25.7,40.9l17.4,8.3H147.3l17.4-8.3
		c15.6-7.5,25.7-23.5,25.7-40.9v-12.5c23.4,13.7,47.7,21.4,65.6,21.4C277.2,456.7,303,446.1,321.6,435.3z M67.5,257.8v-3.4
		c0-12.8,10.4-23.2,23.2-23.2h17.1l5.6,76C87.8,305.4,67.5,283.9,67.5,257.8z M256,167.3c5.9,7,14.7,11.5,24.6,11.5h10.9
		c-4.5,4.2-9.6,7.6-15.3,10h-40.2c-5.7-2.4-10.8-5.8-15.3-10h10.9C241.3,178.8,250.1,174.3,256,167.3L256,167.3z M150.3,180.6
		c0.1-1.2,0.2-2.5,0.3-3.7c4,1.3,8.2,1.9,12.6,1.9h1.8c0.6,3.6,1.9,7,3.6,10H158C153.5,188.8,150,185,150.3,180.6L150.3,180.6z
		 M180.4,178.8H201c2.5,3.6,5.3,7,8.4,10h-14.7C188.1,188.8,182.5,184.6,180.4,178.8z M302.6,188.8c3.1-3,5.9-6.4,8.4-10h20.5
		c-2.1,5.8-7.7,10-14.2,10H302.6z M361.7,180.6c0.3,4.5-3.2,8.3-7.7,8.3h-10.6c1.8-3,3-6.4,3.6-10h1.8c4.4,0,8.6-0.7,12.6-1.9
		C361.6,178.1,361.7,179.3,361.7,180.6z M444.5,257.8c0,26.1-20.3,47.6-45.9,49.4l5.6-76h17.1c12.8,0,23.2,10.4,23.2,23.2V257.8z"/>
	<path class="st0" d="M243.5,245.8c0-4.1-3.4-7.5-7.5-7.5h-59.8c-4.1,0-7.5,3.4-7.5,7.5s3.4,7.5,7.5,7.5H236
		C240.2,253.3,243.5,249.9,243.5,245.8z"/>
	<path class="st0" d="M343.2,245.8c0-4.1-3.4-7.5-7.5-7.5h-39.8c-15.1,0-27.5,12.3-27.5,27.5v39.4c0,6.9-5.6,12.5-12.5,12.5
		c-4.1,0-7.5,3.4-7.5,7.5s3.4,7.5,7.5,7.5c15.1,0,27.5-12.3,27.5-27.5v-39.4c0-6.9,5.6-12.5,12.5-12.5h39.8
		C339.9,253.3,343.2,249.9,343.2,245.8L343.2,245.8z"/>
	<path class="st0" d="M216.1,388.1h79.7c4.1,0,7.5-3.4,7.5-7.5s-3.4-7.5-7.5-7.5h-79.7c-4.1,0-7.5,3.4-7.5,7.5
		S212,388.1,216.1,388.1L216.1,388.1z"/>
	<path class="st0" d="M180,93.4l6.5-10.7c2.1-3.5,1-8.2-2.6-10.3c-3.5-2.1-8.2-1-10.3,2.6l-4.3,7.2H156c-4.1,0-7.5,3.4-7.5,7.5
		s3.4,7.5,7.5,7.5h7.7c-0.3,6.5,2.1,13,7,17.9l2.8,2.8c4.4,4.4,10.3,6.8,16.4,7c-0.2,1.8-0.2,2.9-0.2,5c0,8.3,3.2,16.1,9.1,22
		c2.9,2.9,7.7,2.9,10.6,0c2.9-2.9,2.9-7.7,0-10.6c-3-3-4.7-7.1-4.7-11.4v-2c0-4.3,2.6-8.3,6.5-10.1c0.9-0.4-2.7,1.2,11.5-5.2
		c3.8-1.7,5.4-6.2,3.7-9.9s-6.2-5.4-9.9-3.7c-34.1,15.5-1.2,0.5-22.4,10.2c-3.4,1.5-7.4,0.8-10-1.8l-2.8-2.8
		C178.6,101.8,177.7,97.4,180,93.4L180,93.4z"/>
	<path class="st0" d="M363.5,89.7c0-4.1-3.4-7.5-7.5-7.5h-13.3l-4.3-7.2c-2.1-3.5-6.7-4.7-10.3-2.6c-3.5,2.1-4.7,6.7-2.6,10.3
		l6.5,10.7c2.3,4,1.5,8.3-1.3,11l-2.8,2.8c-2.6,2.6-6.6,3.3-10,1.8c-21.5-9.8,11.2,5.1-22.4-10.2c-3.8-1.7-8.2,0-9.9,3.7
		c-1.7,3.8,0,8.2,3.7,9.9l11.5,5.2c3.9,1.8,6.5,5.7,6.5,10.1v2c0,4.3-1.7,8.3-4.7,11.4c-2.9,2.9-2.9,7.7,0,10.6
		c2.9,2.9,7.7,2.9,10.6,0c5.9-5.9,9.1-13.7,9.1-22c0-2.1,0-3.2-0.2-5c6-0.1,12-2.6,16.4-7l2.8-2.8c4.9-4.9,7.3-11.4,7-17.9h7.7
		C360.2,97.2,363.5,93.8,363.5,89.7L363.5,89.7z"/>
</g>
</svg>
