<?xml version="1.0" encoding="utf-8"?>
<!-- Generator: Adobe Illustrator 24.0.0, SVG Export Plug-In . SVG Version: 6.00 Build 0)  -->
<svg version="1.1" id="Слой_1" xmlns="http://www.w3.org/2000/svg" xmlns:xlink="http://www.w3.org/1999/xlink" x="0px" y="0px"
	 viewBox="0 0 480 480" style="enable-background:new 0 0 480 480;" xml:space="preserve">
<style type="text/css">
	.st0{fill:#FFFFFF;}
</style>
<path class="st0" d="M232.2,294.1l-16,64c-0.6,2.4-0.1,4.9,1.5,6.9c1.5,1.9,3.8,3.1,6.3,3.1c0.7,0,1.3-0.1,1.9-0.2l32-8
	c4.3-1.1,6.8-5.4,5.8-9.7c-1.1-4.3-5.4-6.9-9.6-5.8L235,349l12.8-51.1c0.8-2.8,0-5.8-2.1-7.8c-2.1-2-5.1-2.8-7.9-2
	S232.9,291.3,232.2,294.1L232.2,294.1z"/>
<path class="st0" d="M202,272.2c-4.3-1.1-8.6,1.5-9.7,5.8c-0.1,0.3-6.8,26-24.2,26s-24.2-25.7-24.2-26c-1.1-4.3-5.4-6.9-9.7-5.8
	c-4.3,1.1-6.9,5.4-5.8,9.7c0.4,1.6,9.9,38.1,39.8,38.1s39.4-36.5,39.8-38.1C208.8,277.7,206.2,273.3,202,272.2z"/>
<path class="st0" d="M312,320c29.9,0,39.4-36.5,39.8-38.1c1.1-4.3-1.5-8.6-5.8-9.7c-4.3-1.1-8.6,1.5-9.7,5.8
	c-0.1,0.3-6.8,26-24.2,26s-24.2-25.7-24.2-26c-1.1-4.3-5.4-6.9-9.7-5.8c-4.3,1.1-6.9,5.4-5.8,9.7C272.6,283.5,282.1,320,312,320z"/>
<path class="st0" d="M205,143.4c4.1,1.6,8.8-0.4,10.4-4.5l10.8-27h27.6l10.8,27c1.6,4.1,6.3,6.1,10.4,4.5c4.1-1.6,6.1-6.3,4.5-10.4
	l-32-80c-1.2-3-4.2-5-7.4-5c-3.3,0-6.2,2-7.4,5l-32,80C198.9,137.1,200.9,141.8,205,143.4z M240,77.5l7.4,18.5h-14.8L240,77.5z"/>
<path class="st0" d="M408,233v-49c0-5.8,0-23.2-72-33.7V40c0-22.1-17.9-40-40-40H184c-22.1,0-40,17.9-40,40v110.3
	c-72,10.5-72,27.9-72,33.7v49c-18.2,4.5-32,23.8-32,47c0,23.5,14.2,43.1,32.8,47.2C80.6,413.7,153.2,480,240,480
	c86.9,0,159.4-66.3,167.2-152.8c18.6-4.1,32.7-23.7,32.7-47.2C440,256.8,426.2,237.4,408,233z M72,310c-10.5-6.2-16.7-17.8-16-30
	c-0.7-12.2,5.5-23.8,16-30V310z M160,40c0-13.3,10.7-24,24-24h112c13.3,0,24,10.7,24,24v112c0,13.3-10.7,24-24,24H184
	c-13.3,0-24-10.7-24-24V40z M392,312c0,83.9-68,152-152,152c-83.9,0-152-68-152-152V202.9c40.9,20.8,146.5,21.1,152,21.1
	s111.1-0.3,152-21.1V312z M240,208c-94.4,0-148.2-15.5-152-23.5v-0.2c1.4-2.9,14.8-11.8,58.7-18.2c5.9,15.5,20.7,25.8,37.3,25.9h112
	c16.6-0.1,31.4-10.4,37.3-25.9c44.3,6.5,57.6,15.5,58.7,17.5C388.5,192.4,334.7,208,240,208z M408,310V250c10.5,6.2,16.7,17.8,16,30
	C424.7,292.2,418.5,303.8,408,310z"/>
</svg>
