<?xml version="1.0" encoding="utf-8"?>
<!-- Generator: Adobe Illustrator 24.0.0, SVG Export Plug-In . SVG Version: 6.00 Build 0)  -->
<svg version="1.1" id="Слой_1" xmlns="http://www.w3.org/2000/svg" xmlns:xlink="http://www.w3.org/1999/xlink" x="0px" y="0px"
	 viewBox="0 0 480 480" style="enable-background:new 0 0 480 480;" xml:space="preserve">
<style type="text/css">
	.st0{fill:#FFFFFF;}
</style>
<path class="st0" d="M232.2,294l-16,64c-0.7,2.7,0.1,5.6,2.1,7.6c2,2,4.9,2.8,7.6,2.1l32-8c2.8-0.6,5.1-2.8,5.9-5.5
	c0.8-2.8,0.1-5.8-2-7.9c-2-2.1-5-2.9-7.8-2.1L235,349l12.8-51.1c1-4.3-1.6-8.6-5.8-9.6C237.7,287.2,233.4,289.8,232.2,294L232.2,294
	z"/>
<path class="st0" d="M202,272.2c-4.3-1.1-8.6,1.5-9.7,5.8c-0.1,0.3-6.8,26-24.2,26s-24.2-25.7-24.2-26c-1.1-4.3-5.4-6.9-9.7-5.8
	c-4.3,1.1-6.9,5.4-5.8,9.7c0.4,1.6,9.9,38.1,39.8,38.1s39.4-36.5,39.8-38.1C208.8,277.7,206.2,273.3,202,272.2z"/>
<path class="st0" d="M312,320c29.9,0,39.4-36.5,39.8-38.1c1.1-4.3-1.5-8.6-5.8-9.7c-4.3-1.1-8.6,1.5-9.7,5.8
	c-0.1,0.3-6.8,26-24.2,26s-24.2-25.7-24.2-26c-1.1-4.3-5.4-6.9-9.7-5.8c-4.3,1.1-6.9,5.4-5.8,9.7C272.6,283.5,282.1,320,312,320z"/>
<path class="st0" d="M408,233v-49c0-16.3-27-27.9-80-34.8V8c0-4.4-3.6-8-8-8H192c-22.1,0-40,17.9-40,40v109.2
	C99,156,72,167.7,72,184v49c-18.2,4.5-32,23.8-32,47c0,23.5,14.2,43.1,32.8,47.2C80.6,413.7,153.2,480,240,480
	c86.9,0,159.4-66.3,167.2-152.8c18.6-4.1,32.7-23.7,32.7-47.2C440,256.8,426.2,237.4,408,233z M72,310c-10.5-6.2-16.7-17.8-16-30
	c-0.7-12.2,5.5-23.8,16-30V310z M192,16h120v16h-88c-4.4,0-8,3.6-8,8s3.6,8,8,8h88v16H192c-13.3,0-24-10.7-24-24S178.8,16,192,16z
	 M232,80v41l-11.6-7.7c-2.7-1.8-6.2-1.8-8.9,0L200,121V80H232z M168,71.8c4.7,3.6,10.2,6.2,16,7.4V136c0,2.9,1.6,5.7,4.2,7.1
	c2.6,1.4,5.8,1.2,8.2-0.4l19.6-13.1l19.6,13c2.5,1.6,5.6,1.8,8.2,0.4c2.6-1.4,4.2-4.1,4.2-7V80h64v96H168V71.8z M392,312
	c0,83.9-68,152-152,152c-83.9,0-152-68-152-152V202.9c40.9,20.8,146.5,21.1,152,21.1s111.1-0.3,152-21.1V312z M240,208
	c-94.4,0-148.2-15.5-152-23.5v-0.2c1.4-3.1,16.1-12.5,64-19V184c0,4.4,3.6,8,8,8h160c4.4,0,8-3.6,8-8v-18.7
	c48.3,6.5,62.8,16,64.1,18.3C388.5,192.4,334.7,208,240,208z M408,310V250c10.5,6.2,16.7,17.8,16,30
	C424.7,292.2,418.5,303.8,408,310z"/>
</svg>
